<?xml version="1.0" encoding="UTF-8"?>
<svg id="Layer_2" xmlns="http://www.w3.org/2000/svg" viewBox="200 100 440.89 180.51" width="180" height="50">
  <defs>
    <style>
      .cls-1 {
        fill: none;
      }

      .cls-2 {
        fill: #e73843;
      }

      .cls-3 {
        fill: #fff;
      }
    </style>
  </defs>
  <g id="Logo">
    <g>
      <g>
        <g>
          <g>
            <path class="cls-3" d="M293.2,165.61c3.18-.03,5.24-.59,6.19-1.69.95-1.1,1.43-2.75,1.43-4.95v-39.64c0-2.27-.54-3.76-1.63-4.47-1.09-.71-3.01-1.18-5.79-1.39v-2.12h21.03l16.42,38.63h.69l16.32-38.63h21.04v2.12c-2.82.21-4.75.73-5.79,1.56-1.03.83-1.55,2.84-1.55,6.06v36.92c0,3.07.51,5.08,1.55,6.03,1.03.95,2.96,1.48,5.79,1.59v2.12h-27.71v-2.12c2.47-.08,4.33-.5,5.58-1.24,1.25-.75,1.88-2.38,1.88-4.91v-40.79h-.61l-20.45,49.06h-2.24l-20.66-48.08h-.37v37.73c0,2.78.51,4.82,1.55,6.1,1.03,1.28,3.31,1.99,6.85,2.13v2.12h-19.52v-2.12Z"/>
            <path class="cls-3" d="M372.16,167.73v-2.12c2.39-.08,4.09-.41,5.09-.98,1.55-.87,2.32-2.5,2.32-4.89v-40.42c0-2.43-.8-4.06-2.41-4.9-.92-.51-2.59-.84-5.01-.97v-2.12h48.08v16.83h-2.04c-1.06-5.38-2.86-9.06-5.4-11.04-2.54-1.99-7.17-2.97-13.88-2.97-2.55,0-4.18.26-4.87.79-.69.53-1.04,1.58-1.04,3.16v19.31c4.75.05,7.97-.81,9.66-2.59,1.68-1.78,2.97-5.03,3.87-9.76h2.12s0,28.2,0,28.2h-2.12c-.6-4.75-1.81-8.1-3.65-10.04-1.83-1.94-5.13-2.91-9.88-2.91v20.21c0,1.77.45,2.97,1.36,3.6.91.64,2.78.96,5.6.96,5.32,0,9.67-1.03,13.04-3.1,3.37-2.06,6.36-5.94,8.96-11.61h2.32l-3.38,17.36h-48.78Z"/>
            <path class="cls-3" d="M427.82,165.61c3.1-.08,5.09-.67,5.99-1.77.9-1.1,1.34-2.72,1.34-4.87v-39.52c-2.55-2.85-4.13-4.53-4.73-5.03-.6-.5-1.41-.82-2.45-.96v-2.12h17.69l28.68,34.86h.41v-24.51c0-2.83-.51-4.84-1.54-6.05-1.03-1.21-3.08-1.93-6.16-2.18v-2.12h17.93v2.12c-2.61.43-4.35,1.01-5.24,1.74-.88.73-1.32,2.36-1.32,4.9v49.18h-2.32l-36.71-44.62h-.57v32.72c0,2.57.35,4.38,1.06,5.45,1.11,1.72,3.4,2.65,6.85,2.78v2.12h-18.91v-2.12Z"/>
            <path class="cls-3" d="M519.58,148.05l-8.03-19.31h-.7l-7.53,19.31h16.26ZM488.25,165.61c2.01-.14,3.63-1.05,4.85-2.73.79-1.06,1.92-3.4,3.38-7.01l18.54-45.68h2.32l18.62,43.84c2.09,4.92,3.65,8.09,4.68,9.52,1.03,1.43,2.5,2.11,4.4,2.06v2.12h-27.02v-2.12c2.72-.11,4.5-.34,5.36-.69.86-.35,1.28-1.25,1.28-2.69,0-.65-.22-1.64-.65-2.98-.27-.79-.64-1.74-1.1-2.85l-2.12-5.05h-18.74c-1.22,3.32-2.01,5.47-2.36,6.48-.74,2.15-1.1,3.71-1.1,4.69,0,1.19.8,2.06,2.4,2.61.95.3,2.38.46,4.28.49v2.12h-17.03v-2.12Z"/>
            <path class="cls-3" d="M580.93,136.66c2.35-1.45,3.52-4.81,3.52-10.09,0-3.23-.45-5.79-1.34-7.66-1.55-3.18-4.37-4.77-8.47-4.77-2.23,0-3.69.28-4.38.84-.69.56-1.04,1.47-1.04,2.75v21.23c5.46-.08,9.36-.85,11.71-2.3M548.35,165.61c2.83-.14,4.75-.67,5.79-1.59,1.03-.92,1.55-2.94,1.55-6.03v-36.92c0-3.22-.61-5.31-1.83-6.28-.81-.65-2.65-1.09-5.5-1.34v-2.12h26.85c5.57,0,10.08.58,13.53,1.75,6.68,2.36,10.02,6.61,10.02,12.75,0,4.54-1.75,8.11-5.25,10.72-2.67,1.95-5.5,3.21-8.49,3.75l17.73,23.75c.46.65.95,1.08,1.47,1.28.51.21,1.15.33,1.92.39v2h-17.41l-19.47-26.08h-.03s0,16.34,0,16.34c0,2.93.49,4.91,1.47,5.93.98,1.02,2.93,1.58,5.86,1.69v2.12h-28.2v-2.12Z"/>
            <path class="cls-3" d="M608.62,165.61c2.36-.05,4.06-.34,5.09-.86,1.69-.87,2.53-2.54,2.53-5.01v-40.42c0-2.46-.8-4.1-2.4-4.94-.98-.51-2.72-.82-5.22-.93v-2.12h29.18v2.12c-2.61.11-4.4.4-5.38.89-1.63.83-2.44,2.5-2.44,4.98v40.42c0,2.34.65,3.9,1.96,4.68,1.3.79,3.26,1.18,5.87,1.18v2.12h-29.18v-2.12Z"/>
            <path class="cls-3" d="M641.09,165.61c3.1-.08,5.09-.67,5.99-1.77.9-1.1,1.34-2.72,1.34-4.87v-39.52c-2.55-2.85-4.13-4.53-4.73-5.03-.6-.5-1.41-.82-2.45-.96v-2.12h17.69l28.68,34.86h.41v-24.51c0-2.83-.51-4.84-1.54-6.05-1.03-1.21-3.08-1.93-6.16-2.18v-2.12h17.93v2.12c-2.61.43-4.35,1.01-5.24,1.74-.88.73-1.32,2.36-1.32,4.9v49.18h-2.32l-36.71-44.62h-.57v32.72c0,2.57.35,4.38,1.06,5.45,1.11,1.72,3.4,2.65,6.85,2.78v2.12h-18.91v-2.12Z"/>
            <path class="cls-3" d="M701.36,165.61c2.36-.05,4.06-.34,5.09-.86,1.69-.87,2.53-2.54,2.53-5.01v-40.42c0-2.46-.8-4.1-2.4-4.94-.98-.51-2.72-.82-5.22-.93v-2.12h29.18v2.12c-2.61.11-4.4.4-5.38.89-1.63.83-2.44,2.5-2.44,4.98v40.42c0,2.34.65,3.9,1.96,4.68,1.3.79,3.26,1.18,5.87,1.18v2.12h-29.18v-2.12Z"/>
          </g>
          <rect class="cls-3" x="293.2" y="181.85" width="437.33" height="5.5"/>
          <g>
            <path class="cls-3" d="M557.7,201.39h29.77l-1.52,10.38h-1.39c-.25-2.84-.95-4.94-2.13-6.32-1.17-1.37-2.86-2.06-5.07-2.06h-.55l-8.01,29.27c-.05.19-.09.38-.12.58-.03.19-.04.39-.04.61,0,.75.28,1.3.83,1.63.55.33,1.58.56,3.09.68l.05,1.34h-17v-1.34c1.59-.09,2.79-.39,3.57-.92.79-.52,1.34-1.37,1.66-2.52l7.8-29.46c-.1,0-.27.01-.49.04s-.38.04-.49.04c-2.22,0-4.3.69-6.24,2.06-1.94,1.38-3.42,3.24-4.45,5.61h-1.26l2-9.62Z"/>
            <path class="cls-3" d="M608.49,231.42c-.04.18-.11.42-.21.74-.11.47-.16.75-.16.81,0,.28.09.52.26.72s.39.3.66.3c.63,0,1.8-1.22,3.49-3.65l.05-.1,1.18.79c-1.65,2.59-3.13,4.45-4.44,5.56-1.31,1.11-2.65,1.67-4.02,1.67-1.1,0-1.99-.36-2.65-1.08-.67-.72-1-1.69-1-2.92,0-.28.03-.62.09-1.03.06-.4.15-.88.28-1.44l.6-2.47c-1.89,3.05-3.72,5.3-5.49,6.75-1.77,1.45-3.56,2.18-5.39,2.18-1.3,0-2.29-.35-2.98-1.05-.69-.7-1.04-1.7-1.04-2.99,0-.6.12-1.46.35-2.59s.62-2.65,1.14-4.56l1.84-6.46c.26-.96.45-1.71.57-2.25.11-.53.17-.93.17-1.2,0-.51-.18-.88-.55-1.13-.37-.25-.94-.37-1.71-.37h-.47l-.05-1.37c1.49-.16,3.12-.37,4.9-.63,1.78-.26,3.71-.59,5.79-.97l-5.2,18.55c-.11.37-.19.72-.25,1.06-.06.34-.09.65-.09.93,0,.33.09.6.28.79.18.19.41.29.7.29,1.91,0,4-1.96,6.28-5.87,2.28-3.91,4.12-8.91,5.52-14.99h6.46l-4.91,17.97ZM596.27,205.4c0-.77.32-1.48.96-2.11.64-.63,1.36-.95,2.17-.95.86,0,1.59.3,2.21.91.61.61.92,1.32.92,2.15,0,.95-.29,1.73-.88,2.34-.59.61-1.34.91-2.25.91-.84,0-1.57-.31-2.19-.94-.62-.63-.93-1.39-.93-2.31ZM605.75,205.4c0-.77.32-1.48.98-2.11.65-.63,1.38-.95,2.18-.95.85,0,1.58.3,2.19.91.61.61.91,1.32.91,2.15,0,.95-.29,1.73-.87,2.34-.58.61-1.32.91-2.23.91-.85,0-1.59-.32-2.21-.95-.63-.63-.94-1.4-.94-2.3Z"/>
            <path class="cls-3" d="M623.78,237.49h-6.46l4.6-16.9c.04-.16.09-.39.16-.71.38-1.45.58-2.37.58-2.73,0-.51-.18-.88-.55-1.13-.37-.25-.94-.37-1.71-.37h-.47l-.05-1.37c1.23-.14,2.59-.32,4.1-.54,1.51-.22,3.7-.57,6.59-1.06l-2.94,9.75c1.8-3.56,3.37-6.08,4.7-7.57,1.33-1.49,2.65-2.23,3.94-2.23.96,0,1.71.31,2.23.93.53.62.79,1.51.79,2.67s-.28,2.09-.83,2.76c-.55.67-1.32,1-2.3,1-.89,0-1.64-.3-2.23-.91-.6-.61-.95-.91-1.05-.91-1.09,0-2.51,1.83-4.28,5.48-1.77,3.65-3.37,8.26-4.81,13.83Z"/>
            <path class="cls-3" d="M655.6,199.92l-6.57,24.73c3.68-2.68,6.16-4.62,7.44-5.81,1.28-1.19,1.92-2.09,1.92-2.71,0-.47-.21-.83-.63-1.06s-1.12-.38-2.1-.43v-1.47h11.25v1.47c-1.98.3-4.44,1.62-7.38,3.97-.23.19-.4.34-.53.45l-2.92,2.37c.7,4.5,1.41,7.72,2.12,9.67.71,1.94,1.53,2.92,2.46,2.92.49,0,.94-.22,1.35-.66.41-.44,1.02-1.47,1.83-3.1l1.13.63c-1.02,2.38-2.13,4.18-3.35,5.4-1.22,1.22-2.5,1.83-3.85,1.83-1.82,0-3.23-.81-4.22-2.43-.99-1.62-1.95-4.92-2.88-9.89l-2.39,1.71-2.57,10.01h-6.57l8.07-29.93v-.1c.4-1.37.61-2.28.61-2.73,0-.72-.2-1.21-.61-1.48-.4-.27-1.17-.41-2.31-.41h-.63v-1.45c1.52-.09,3.23-.25,5.11-.49,1.88-.24,3.96-.57,6.24-.99Z"/>
            <path class="cls-3" d="M671.68,220.6c.28-.91.48-1.64.59-2.18.11-.54.17-.96.17-1.26,0-.51-.19-.88-.57-1.13-.38-.25-.94-.37-1.7-.37h-.47l-.08-1.37c2.05-.25,3.96-.5,5.72-.78,1.76-.27,3.38-.55,4.85-.83l-4.81,17.97c-.15.53-.26,1-.35,1.43s-.12.76-.12.99c0,.32.07.57.22.75s.35.28.59.28c.44,0,.98-.32,1.63-.96.65-.64,1.38-1.57,2.18-2.8l1.08.68c-1.38,2.42-2.77,4.21-4.17,5.37-1.39,1.17-2.83,1.75-4.32,1.75-1.23,0-2.19-.35-2.89-1.04-.7-.69-1.05-1.64-1.05-2.85,0-.53.18-1.47.55-2.84.09-.33.16-.59.21-.76l2.73-10.06ZM675.14,204.18c0-.98.35-1.82,1.05-2.51.7-.69,1.55-1.04,2.57-1.04.96,0,1.79.35,2.49,1.04.7.69,1.05,1.53,1.05,2.51s-.35,1.85-1.05,2.56c-.7.71-1.53,1.06-2.49,1.06s-1.85-.35-2.55-1.06c-.71-.71-1.06-1.56-1.06-2.56Z"/>
            <path class="cls-3" d="M684.42,215.42v-1.39c1.31-.09,2.81-.32,4.48-.71,1.67-.38,2.71-.58,3.11-.58.93,0,2.19,4.2,3.78,12.59.45,2.54.83,4.56,1.13,6.04,1.42-2.63,2.54-4.91,3.35-6.85.81-1.94,1.22-3.28,1.22-4.03,0-.68-.5-1.4-1.48-2.15-.99-.75-1.48-1.58-1.48-2.47,0-.95.3-1.73.91-2.35.6-.62,1.36-.93,2.27-.93,1.12,0,1.97.3,2.56.91.59.6.88,1.5.88,2.69,0,1.4-.6,3.53-1.79,6.4-1.19,2.86-2.99,6.47-5.39,10.81-2.7,4.97-5.33,8.75-7.91,11.32-2.57,2.58-4.99,3.86-7.25,3.86-1.19,0-2.17-.32-2.94-.96-.77-.64-1.16-1.43-1.16-2.38,0-.88.3-1.61.91-2.19.6-.59,1.35-.88,2.22-.88.7,0,1.58.32,2.63.97,1.05.65,1.77.97,2.15.97.84,0,1.9-.75,3.17-2.25,1.27-1.5,1.91-2.83,1.91-4.01,0-.51-.07-1.27-.2-2.28-.13-1.02-.35-2.51-.67-4.49-.51-3.19-.99-5.81-1.44-7.87-.46-2.06-.94-3.85-1.45-5.37-.35-1.02-.7-1.68-1.06-2-.36-.32-.96-.47-1.8-.47h-.11c-.17.04-.36.05-.55.05Z"/>
            <path class="cls-3" d="M727.8,230.82c-1.3,2.52-2.79,4.39-4.47,5.61-1.68,1.22-3.6,1.83-5.75,1.83-2.36,0-4.27-.76-5.7-2.29-1.44-1.52-2.16-3.53-2.16-6.02,0-1.91.4-3.86,1.2-5.85.8-1.99,1.92-3.84,3.38-5.56,1.59-1.86,3.28-3.28,5.06-4.27,1.78-.99,3.55-1.48,5.32-1.48s3.23.44,4.28,1.33c1.05.88,1.58,2.07,1.58,3.56,0,2.29-1.22,4.33-3.65,6.1-2.43,1.77-5.77,3.02-10.01,3.76-.1.51-.18.99-.24,1.46-.05.46-.08.9-.08,1.3,0,1.4.33,2.47.99,3.22.66.75,1.6,1.12,2.82,1.12,1.03,0,2.03-.38,2.98-1.14.96-.76,1.93-1.98,2.93-3.64l1.52.97ZM717.29,225.78c2.56-.6,4.66-1.77,6.31-3.53,1.65-1.76,2.47-3.62,2.47-5.58,0-.67-.16-1.2-.49-1.6-.32-.4-.75-.6-1.27-.6-1.24,0-2.51,1.03-3.78,3.07-1.28,2.05-2.36,4.8-3.23,8.25Z"/>
          </g>
        </g>
        <g>
          <path d="M111.36,111.36v167.79h167.78V111.36H111.36ZM279.14,279.15V111.36M145.05,276.33v-68.93l48.21,68.93h-48.21ZM245.43,276.33h-48.21s48.21-68.93,48.21-68.93v68.93ZM276.32,276.33h-28.07v-77.87l-53,75.78-53.01-75.78v77.87h-28.06V114.18h.05l81.01,111.36,81.02-111.36h.05v162.16Z"/>
          <polygon class="cls-2" points="193.26 276.33 145.05 207.4 145.05 276.33 193.26 276.33"/>
          <polygon class="cls-2" points="245.43 207.4 197.22 276.33 245.43 276.33 245.43 207.4"/>
          <polygon class="cls-3" points="276.32 276.33 276.32 114.18 276.26 114.18 195.24 225.54 114.23 114.18 114.18 114.18 114.18 276.33 142.24 276.33 142.24 198.46 195.24 274.25 248.24 198.46 248.24 276.33 276.32 276.33"/>
          <g>
            <polygon class="cls-3" points="189.33 195.55 197.7 197.66 189.33 199.78 189.33 203.98 201.21 203.98 201.21 201.11 193.26 201.11 193.18 201.11 201.21 199.14 201.21 196.25 193.17 194.26 201.21 194.26 201.21 191.39 189.33 191.39 189.33 195.55"/>
            <polygon class="cls-3" points="198.73 186.3 196.21 186.3 196.21 180.18 193.8 180.18 193.8 186.3 191.78 186.3 191.78 179.64 189.33 179.64 189.33 189.29 201.21 189.29 201.21 179.33 198.73 179.33 198.73 186.3"/>
            <polygon class="cls-3" points="189.33 169.96 196.81 169.96 189.33 174.66 189.33 177.74 201.21 177.74 201.21 174.87 193.59 174.87 201.21 170.05 201.21 167.1 189.33 167.1 189.33 169.96"/>
            <path class="cls-3" d="M189.33,161.4l11.88,4.66v-3.2l-2.35-.87v-4.34l2.35-.82v-3.31l-11.88,4.63v3.26ZM196.47,158.51v2.6l-3.67-1.32,3.67-1.28Z"/>
            <path class="cls-3" d="M200.54,141.55c-.11.2-.28.32-.52.38-.16.05-.5.07-1.01.07h-.77c-.85,0-1.47.13-1.91.39-.31.2-.57.49-.78.87-.24-.51-.58-.89-1.02-1.13-1.02-.58-2.14-.6-3-.23-.37.17-.72.4-1.02.68-.37.35-.65.77-.86,1.29-.19.5-.29,1.19-.31,2.11v6.39h11.88v-2.99h-4.49v-2.5c0-.89.17-1.28.32-1.45.2-.23.64-.36,1.31-.36l1.07-.02c.43-.01.75-.05,1.04-.12.15-.03.36-.09.62-.18l.15-.05v-3.26h-.62l-.06.11ZM191.75,149.38v-2.85c0-.53.06-.93.18-1.19.2-.43.6-.64,1.21-.64.56,0,.91.21,1.09.66.12.29.18.71.18,1.25v2.77h-2.66Z"/>
            <rect class="cls-3" x="189.33" y="136.97" width="11.88" height="3.04"/>
            <polygon class="cls-3" points="201.21 132.11 193.59 132.11 201.21 127.29 201.21 124.34 189.33 124.34 189.33 127.21 196.81 127.21 189.33 131.89 189.33 134.98 201.21 134.98 201.21 132.11"/>
            <rect class="cls-3" x="189.33" y="119.48" width="11.88" height="3.03"/>
          </g>
        </g>
      </g>
      <g>
        <g>
          <polygon class="cls-1" points="197.22 348.08 245.43 279.15 197.22 279.15 197.22 348.08"/>
          <polygon class="cls-1" points="193.26 42.43 145.05 111.36 193.26 111.36 193.26 42.43"/>
          <polygon class="cls-1" points="799.46 208.7 730.53 160.49 730.53 208.7 799.46 208.7"/>
          <polygon class="cls-1" points="42.43 171.15 111.36 219.36 111.36 171.15 42.43 171.15"/>
        </g>
        <g>
          <polygon class="cls-1" points="276.27 111.36 195.25 0 114.23 111.36 276.27 111.36"/>
          <polygon class="cls-1" points="111.36 114.23 0 195.25 111.36 276.27 111.36 114.23"/>
          <polygon class="cls-1" points="730.53 276.27 841.89 195.25 730.53 114.23 730.53 276.27"/>
          <polygon class="cls-1" points="114.23 279.15 195.24 390.51 276.27 279.15 114.23 279.15"/>
        </g>
      </g>
    </g>
  </g>
</svg>